<?xml version="1.0" encoding="UTF-8" standalone="no"?><svg xmlns="http://www.w3.org/2000/svg" xmlns:xlink="http://www.w3.org/1999/xlink" contentScriptType="application/ecmascript" contentStyleType="text/css" height="304px" preserveAspectRatio="none" style="width:576px;height:304px;" version="1.1" viewBox="0 0 576 304" width="576px" zoomAndPan="magnify"><defs><filter height="300%" id="f1g06tqrlietem" width="300%" x="-1" y="-1"><feGaussianBlur result="blurOut" stdDeviation="2.0"/><feColorMatrix in="blurOut" result="blurOut2" type="matrix" values="0 0 0 0 0 0 0 0 0 0 0 0 0 0 0 0 0 0 .4 0"/><feOffset dx="4.0" dy="4.0" in="blurOut2" result="blurOut3"/><feBlend in="SourceGraphic" in2="blurOut3" mode="normal"/></filter></defs><g><!--entity Admin--><ellipse cx="310.5" cy="18" fill="#FEFECE" filter="url(#f1g06tqrlietem)" rx="8" ry="8" style="stroke: #A80036; stroke-width: 2.0;"/><path d="M310.5,26 L310.5,53 M297.5,34 L323.5,34 M310.5,53 L297.5,68 M310.5,53 L323.5,68 " fill="none" filter="url(#f1g06tqrlietem)" style="stroke: #A80036; stroke-width: 2.0;"/><text fill="#000000" font-family="sans-serif" font-size="14" lengthAdjust="spacingAndGlyphs" textLength="82" x="269.5" y="88.5352">Main Admin</text><ellipse cx="310.3912" cy="272.4782" fill="#FEFECE" filter="url(#f1g06tqrlietem)" rx="80.3912" ry="18.4782" style="stroke: #A80036; stroke-width: 1.5;"/><text fill="#000000" font-family="sans-serif" font-size="14" lengthAdjust="spacingAndGlyphs" textLength="131" x="244.8912" y="277.2224">Use the application</text><!--entity User--><ellipse cx="21.5" cy="18" fill="#FEFECE" filter="url(#f1g06tqrlietem)" rx="8" ry="8" style="stroke: #A80036; stroke-width: 2.0;"/><path d="M21.5,26 L21.5,53 M8.5,34 L34.5,34 M21.5,53 L8.5,68 M21.5,53 L34.5,68 " fill="none" filter="url(#f1g06tqrlietem)" style="stroke: #A80036; stroke-width: 2.0;"/><text fill="#000000" font-family="sans-serif" font-size="14" lengthAdjust="spacingAndGlyphs" textLength="31" x="6" y="88.5352">User</text><ellipse cx="112.6274" cy="49.659" fill="#FEFECE" filter="url(#f1g06tqrlietem)" rx="25.6274" ry="14.659" style="stroke: #A80036; stroke-width: 1.5;"/><text fill="#000000" font-family="sans-serif" font-size="14" lengthAdjust="spacingAndGlyphs" textLength="32" x="96.6274" y="54.4031">Start</text><path d="M387,37 L387,45.5 L351.55,49.5 L387,53.5 L387,62.3105 A0,0 0 0 0 387,62.3105 L530,62.3105 A0,0 0 0 0 530,62.3105 L530,47 L520,37 L387,37 A0,0 0 0 0 387,37 " fill="#FBFB77" filter="url(#f1g06tqrlietem)" style="stroke: #A80036; stroke-width: 1.0;"/><path d="M520,37 L520,47 L530,47 L520,37 " fill="#FBFB77" style="stroke: #A80036; stroke-width: 1.0;"/><text fill="#000000" font-family="sans-serif" font-size="13" lengthAdjust="spacingAndGlyphs" textLength="122" x="393" y="54.5684">This is an example.</text><path d="M426.5,252 L426.5,268.5 L391.08,272.5 L426.5,276.5 L426.5,292.6211 A0,0 0 0 0 426.5,292.6211 L564.5,292.6211 A0,0 0 0 0 564.5,292.6211 L564.5,262 L554.5,252 L426.5,252 A0,0 0 0 0 426.5,252 " fill="#FBFB77" filter="url(#f1g06tqrlietem)" style="stroke: #A80036; stroke-width: 1.0;"/><path d="M554.5,252 L554.5,262 L564.5,262 L554.5,252 " fill="#FBFB77" style="stroke: #A80036; stroke-width: 1.0;"/><text fill="#000000" font-family="sans-serif" font-size="13" lengthAdjust="spacingAndGlyphs" textLength="97" x="432.5" y="269.5684">A note can also</text><text fill="#000000" font-family="sans-serif" font-size="13" lengthAdjust="spacingAndGlyphs" textLength="117" x="432.5" y="284.8789">be on several lines</text><path d="M59.5,151 L59.5,191.6211 L223.5,191.6211 L223.5,161 L213.5,151 L59.5,151 " fill="#FBFB77" filter="url(#f1g06tqrlietem)" style="stroke: #A80036; stroke-width: 1.0;"/><path d="M213.5,151 L213.5,161 L223.5,161 L213.5,151 " fill="#FBFB77" style="stroke: #A80036; stroke-width: 1.0;"/><text fill="#000000" font-family="sans-serif" font-size="13" lengthAdjust="spacingAndGlyphs" textLength="143" x="65.5" y="168.5684">This note is connected</text><text fill="#000000" font-family="sans-serif" font-size="13" lengthAdjust="spacingAndGlyphs" textLength="115" x="65.5" y="183.8789">to several objects.</text><!--link User to Start--><path d="M37.14,49.5 C52.04,49.5 66.94,49.5 81.84,49.5 " fill="none" id="User-Start" style="stroke: #A80036; stroke-width: 1.0;"/><polygon fill="#A80036" points="86.89,49.5,77.89,45.5,81.89,49.5,77.89,53.5,86.89,49.5" style="stroke: #A80036; stroke-width: 1.0;"/><!--link User to Use--><path d="M16.63,91.26 C15.24,122.44 18.73,164.62 42.5,192 C87.76,244.13 165.47,262.88 225.59,269.24 " fill="none" id="User-Use" style="stroke: #A80036; stroke-width: 1.0;"/><polygon fill="#A80036" points="230.62,269.75,222.0641,264.8719,225.645,269.2511,221.2658,272.832,230.62,269.75" style="stroke: #A80036; stroke-width: 1.0;"/><!--link Admin to Use--><path d="M289.64,91.03 C281.25,137.47 282.65,211.92 293.84,249 " fill="none" id="Admin-Use" style="stroke: #A80036; stroke-width: 1.0;"/><polygon fill="#A80036" points="295.57,254.19,296.5098,244.3861,293.9846,249.448,288.9226,246.9228,295.57,254.19" style="stroke: #A80036; stroke-width: 1.0;"/><!--link Admin to Use--><path d="M310.5,91.03 C310.5,137.36 310.5,211.54 310.5,248.71 " fill="none" id="Admin-Use-1" style="stroke: #A80036; stroke-width: 1.0;"/><polygon fill="#A80036" points="310.5,253.92,314.5,244.92,310.5,248.92,306.5,244.92,310.5,253.92" style="stroke: #A80036; stroke-width: 1.0;"/><!--link Admin to Use--><path d="M331.36,91.03 C339.75,137.47 338.35,211.92 327.16,249 " fill="none" id="Admin-Use-2" style="stroke: #A80036; stroke-width: 1.0;"/><polygon fill="#A80036" points="325.43,254.19,332.0774,246.9228,327.0154,249.448,324.4902,244.3861,325.43,254.19" style="stroke: #A80036; stroke-width: 1.0;"/><!--link Start to N2--><path d="M115.83,64.27 C120.97,85.57 130.89,126.59 136.78,150.96 " fill="none" id="Start-N2" style="stroke: #A80036; stroke-width: 1.0; stroke-dasharray: 7.0,7.0;"/><!--link N2 to Use--><path d="M174.89,192.06 C206.34,210.49 252.94,237.78 282.5,255.1 " fill="none" id="N2-Use" style="stroke: #A80036; stroke-width: 1.0; stroke-dasharray: 7.0,7.0;"/><!--
@startuml

:Main Admin: as Admin
(Use the application) as (Use)

User -> (Start)
User - -> (Use)

Admin - - -> (Use)
Admin - - -> (Use)
Admin - - -> (Use)

note right of Admin : This is an example.

note right of (Use)
A note can also
be on several lines
end note

note "This note is connected\nto several objects." as N2
(Start) .. N2
N2 .. (Use)
@enduml

PlantUML version 1.2019.06(Fri May 24 19:10:25 CEST 2019)
(GPL source distribution)
Java Runtime: OpenJDK Runtime Environment
JVM: OpenJDK 64-Bit Server VM
Java Version: 11.0.16.1+0
Operating System: Mac OS X
OS Version: 12.5.1
Default Encoding: UTF-8
Language: en
Country: NO
--></g></svg>