<?xml version="1.0" encoding="UTF-8" standalone="no"?><svg xmlns="http://www.w3.org/2000/svg" xmlns:xlink="http://www.w3.org/1999/xlink" contentScriptType="application/ecmascript" contentStyleType="text/css" height="154px" preserveAspectRatio="none" style="width:180px;height:154px;" version="1.1" viewBox="0 0 180 154" width="180px" zoomAndPan="magnify"><defs/><g><text fill="#000000" font-family="sans-serif" font-size="12" lengthAdjust="spacingAndGlyphs" textLength="79" x="6" y="17.6016">Just plain text</text><rect fill="#EEEEEE" height="18.1328" rx="5" ry="5" style="stroke: #000000; stroke-width: 2.5;" width="140" x="8.5" y="24.6328"/><text fill="#000000" font-family="sans-serif" font-size="12" lengthAdjust="spacingAndGlyphs" textLength="99" x="29" y="38.2344">This is my button</text><text fill="#000000" font-family="sans-serif" font-size="12" lengthAdjust="spacingAndGlyphs" textLength="97" x="26" y="58.8672">Unchecked radio</text><ellipse cx="13" cy="54.332" fill="none" rx="5" ry="5" style="stroke: #000000; stroke-width: 1.5;"/><text fill="#000000" font-family="sans-serif" font-size="12" lengthAdjust="spacingAndGlyphs" textLength="84" x="26" y="75">Checked radio</text><ellipse cx="13" cy="70.4648" fill="none" rx="5" ry="5" style="stroke: #000000; stroke-width: 1.5;"/><ellipse cx="13" cy="70.4648" fill="#000000" rx="2" ry="2" style="stroke: #000000; stroke-width: 1.5;"/><text fill="#000000" font-family="sans-serif" font-size="12" lengthAdjust="spacingAndGlyphs" textLength="84" x="26" y="91.1328">Checked radio</text><ellipse cx="13" cy="86.5977" fill="none" rx="5" ry="5" style="stroke: #000000; stroke-width: 1.5;"/><ellipse cx="13" cy="86.5977" fill="#000000" rx="2" ry="2" style="stroke: #000000; stroke-width: 1.5;"/><text fill="#000000" font-family="sans-serif" font-size="12" lengthAdjust="spacingAndGlyphs" textLength="89" x="26" y="107.2656">Unchecked box</text><rect fill="none" height="10" style="stroke: #000000; stroke-width: 1.5;" width="10" x="8" y="97.7305"/><text fill="#000000" font-family="sans-serif" font-size="12" lengthAdjust="spacingAndGlyphs" textLength="86" x="9" y="123.3984">Enter text here</text><line style="stroke: #000000; stroke-width: 1.0;" x1="7" x2="154" y1="125.9297" y2="125.9297"/><line style="stroke: #000000; stroke-width: 1.0;" x1="7" x2="7" y1="122.9297" y2="124.9297"/><line style="stroke: #000000; stroke-width: 1.0;" x1="154" x2="154" y1="122.9297" y2="124.9297"/><rect fill="#EEEEEE" height="17.1328" style="stroke: #000000; stroke-width: 1.0;" width="159" x="6" y="129.9297"/><text fill="#000000" font-family="sans-serif" font-size="12" lengthAdjust="spacingAndGlyphs" textLength="96" x="8" y="143.5313">This is a droplist</text><line style="stroke: #000000; stroke-width: 1.0;" x1="154" x2="154" y1="129.9297" y2="147.0625"/><polygon fill="#000000" points="157,135.9297,163,135.9297,160,142.0625" style="stroke: #000000; stroke-width: 1.0;"/></g></svg>