<?xml version="1.0" encoding="UTF-8" standalone="no"?><svg xmlns="http://www.w3.org/2000/svg" xmlns:xlink="http://www.w3.org/1999/xlink" contentScriptType="application/ecmascript" contentStyleType="text/css" height="304px" preserveAspectRatio="none" style="width:578px;height:304px;" version="1.1" viewBox="0 0 578 304" width="578px" zoomAndPan="magnify"><defs><filter height="300%" id="f18hij2itd560d" width="300%" x="-1" y="-1"><feGaussianBlur result="blurOut" stdDeviation="2.0"/><feColorMatrix in="blurOut" result="blurOut2" type="matrix" values="0 0 0 0 0 0 0 0 0 0 0 0 0 0 0 0 0 0 .4 0"/><feOffset dx="4.0" dy="4.0" in="blurOut2" result="blurOut3"/><feBlend in="SourceGraphic" in2="blurOut3" mode="normal"/></filter></defs><g><!--entity Admin--><ellipse cx="312.5" cy="18" fill="#FEFECE" filter="url(#f18hij2itd560d)" rx="8" ry="8" style="stroke: #A80036; stroke-width: 2.0;"/><path d="M312.5,26 L312.5,53 M299.5,34 L325.5,34 M312.5,53 L299.5,68 M312.5,53 L325.5,68 " fill="none" filter="url(#f18hij2itd560d)" style="stroke: #A80036; stroke-width: 2.0;"/><text fill="#000000" font-family="sans-serif" font-size="14" lengthAdjust="spacingAndGlyphs" textLength="82" x="271.5" y="88.5352">Main Admin</text><ellipse cx="312.3912" cy="272.4782" fill="#FEFECE" filter="url(#f18hij2itd560d)" rx="80.3912" ry="18.4782" style="stroke: #A80036; stroke-width: 1.5;"/><text fill="#000000" font-family="sans-serif" font-size="14" lengthAdjust="spacingAndGlyphs" textLength="131" x="246.8912" y="277.2224">Use the application</text><!--entity User--><ellipse cx="21.5" cy="18" fill="#FEFECE" filter="url(#f18hij2itd560d)" rx="8" ry="8" style="stroke: #A80036; stroke-width: 2.0;"/><path d="M21.5,26 L21.5,53 M8.5,34 L34.5,34 M21.5,53 L8.5,68 M21.5,53 L34.5,68 " fill="none" filter="url(#f18hij2itd560d)" style="stroke: #A80036; stroke-width: 2.0;"/><text fill="#000000" font-family="sans-serif" font-size="14" lengthAdjust="spacingAndGlyphs" textLength="31" x="6" y="88.5352">User</text><ellipse cx="97.6274" cy="49.659" fill="#FEFECE" filter="url(#f18hij2itd560d)" rx="25.6274" ry="14.659" style="stroke: #A80036; stroke-width: 1.5;"/><text fill="#000000" font-family="sans-serif" font-size="14" lengthAdjust="spacingAndGlyphs" textLength="32" x="81.6274" y="54.4031">Start</text><path d="M389,37 L389,45.5 L353.55,49.5 L389,53.5 L389,62.3105 A0,0 0 0 0 389,62.3105 L532,62.3105 A0,0 0 0 0 532,62.3105 L532,47 L522,37 L389,37 A0,0 0 0 0 389,37 " fill="#FBFB77" filter="url(#f18hij2itd560d)" style="stroke: #A80036; stroke-width: 1.0;"/><path d="M522,37 L522,47 L532,47 L522,37 " fill="#FBFB77" style="stroke: #A80036; stroke-width: 1.0;"/><text fill="#000000" font-family="sans-serif" font-size="13" lengthAdjust="spacingAndGlyphs" textLength="122" x="395" y="54.5684">This is an example.</text><path d="M428.5,252 L428.5,268.5 L393.08,272.5 L428.5,276.5 L428.5,292.6211 A0,0 0 0 0 428.5,292.6211 L566.5,292.6211 A0,0 0 0 0 566.5,292.6211 L566.5,262 L556.5,252 L428.5,252 A0,0 0 0 0 428.5,252 " fill="#FBFB77" filter="url(#f18hij2itd560d)" style="stroke: #A80036; stroke-width: 1.0;"/><path d="M556.5,252 L556.5,262 L566.5,262 L556.5,252 " fill="#FBFB77" style="stroke: #A80036; stroke-width: 1.0;"/><text fill="#000000" font-family="sans-serif" font-size="13" lengthAdjust="spacingAndGlyphs" textLength="97" x="434.5" y="269.5684">A note can also</text><text fill="#000000" font-family="sans-serif" font-size="13" lengthAdjust="spacingAndGlyphs" textLength="117" x="434.5" y="284.8789">be on several lines</text><path d="M44.5,151 L44.5,191.6211 L208.5,191.6211 L208.5,161 L198.5,151 L44.5,151 " fill="#FBFB77" filter="url(#f18hij2itd560d)" style="stroke: #A80036; stroke-width: 1.0;"/><path d="M198.5,151 L198.5,161 L208.5,161 L198.5,151 " fill="#FBFB77" style="stroke: #A80036; stroke-width: 1.0;"/><text fill="#000000" font-family="sans-serif" font-size="13" lengthAdjust="spacingAndGlyphs" textLength="143" x="50.5" y="168.5684">This note is connected</text><text fill="#000000" font-family="sans-serif" font-size="13" lengthAdjust="spacingAndGlyphs" textLength="115" x="50.5" y="183.8789">to several objects.</text><!--link User to Start--><path d="M37.23,69.94 C52.99,85.06 68.75,84.13 84.51,67.14 " fill="none" id="User-Start" style="stroke: #A80036; stroke-width: 1.0;"/><polygon fill="#A80036" points="88.08,63.01,79.1611,67.1876,84.8037,66.787,85.2043,72.4297,88.08,63.01" style="stroke: #A80036; stroke-width: 1.0;"/><!--link User to Start--><path d="M37.23,29.06 C52.99,13.94 68.75,14.87 84.51,31.86 " fill="none" id="User-Start-1" style="stroke: #A80036; stroke-width: 1.0;"/><polygon fill="#A80036" points="88.08,35.99,85.2043,26.5703,84.8037,32.213,79.1611,31.8124,88.08,35.99" style="stroke: #A80036; stroke-width: 1.0;"/><!--link User to Use--><path d="M11.46,91.16 C6.37,122.09 5.27,163.97 27.5,192 C53.88,225.26 165,248.71 240.44,261.16 " fill="none" id="User-Use" style="stroke: #A80036; stroke-width: 1.0;"/><polygon fill="#A80036" points="245.81,262.03,237.5672,256.6397,240.8746,261.2289,236.2854,264.5363,245.81,262.03" style="stroke: #A80036; stroke-width: 1.0;"/><!--link Admin to Use--><path d="M281.51,91.03 C268.96,137.78 271.16,212.91 288.09,249.74 " fill="none" id="Admin-Use" style="stroke: #A80036; stroke-width: 1.0;"/><polygon fill="#A80036" points="290.46,254.46,290.0002,244.6219,288.2182,249.9907,282.8494,248.2087,290.46,254.46" style="stroke: #A80036; stroke-width: 1.0;"/><!--link Admin to Use--><path d="M302.37,91.03 C298.3,137.36 298.97,211.54 304.37,248.71 " fill="none" id="Admin-Use-1" style="stroke: #A80036; stroke-width: 1.0;"/><polygon fill="#A80036" points="305.2,253.92,307.7375,244.4036,304.4151,248.982,299.8367,245.6596,305.2,253.92" style="stroke: #A80036; stroke-width: 1.0;"/><!--link Admin to Use--><path d="M323.23,91.03 C327.53,137.36 326.82,211.54 321.11,248.71 " fill="none" id="Admin-Use-2" style="stroke: #A80036; stroke-width: 1.0;"/><polygon fill="#A80036" points="320.23,253.92,325.6667,245.7077,321.0589,248.9892,317.7775,244.3814,320.23,253.92" style="stroke: #A80036; stroke-width: 1.0;"/><!--link Admin to Use--><path d="M344.09,91.03 C356.91,137.9 354.63,213.3 337.25,250.02 " fill="none" id="Admin-Use-3" style="stroke: #A80036; stroke-width: 1.0;"/><polygon fill="#A80036" points="334.82,254.72,342.4942,248.5469,337.1074,250.2739,335.3804,244.8871,334.82,254.72" style="stroke: #A80036; stroke-width: 1.0;"/><!--link Start to N2--><path d="M100.83,64.27 C105.97,85.57 115.89,126.59 121.78,150.96 " fill="none" id="Start-N2" style="stroke: #A80036; stroke-width: 1.0; stroke-dasharray: 7.0,7.0;"/><!--link N2 to Use--><path d="M163.25,192.06 C197.97,210.54 249.46,237.95 281.98,255.26 " fill="none" id="N2-Use" style="stroke: #A80036; stroke-width: 1.0; stroke-dasharray: 7.0,7.0;"/><!--
@startuml

:Main Admin: as Admin
(Use the application) as (Use)

User -> (Start)
User -> (Start)
User - -> (Use)

Admin - - -> (Use)
Admin - - -> (Use)
Admin - - -> (Use)
Admin - - -> (Use)

note right of Admin : This is an example.

note right of (Use)
A note can also
be on several lines
end note

note "This note is connected\nto several objects." as N2
(Start) .. N2
N2 .. (Use)
@enduml

PlantUML version 1.2019.06(Fri May 24 19:10:25 CEST 2019)
(GPL source distribution)
Java Runtime: OpenJDK Runtime Environment
JVM: OpenJDK 64-Bit Server VM
Java Version: 11.0.16.1+0
Operating System: Mac OS X
OS Version: 12.5.1
Default Encoding: UTF-8
Language: en
Country: NO
--></g></svg>