<?xml version="1.0" encoding="UTF-8" standalone="no"?><svg xmlns="http://www.w3.org/2000/svg" xmlns:xlink="http://www.w3.org/1999/xlink" contentScriptType="application/ecmascript" contentStyleType="text/css" height="170px" preserveAspectRatio="none" style="width:180px;height:170px;" version="1.1" viewBox="0 0 180 170" width="180px" zoomAndPan="magnify"><defs/><g><text fill="#000000" font-family="sans-serif" font-size="12" lengthAdjust="spacingAndGlyphs" textLength="109" x="6" y="17.6016">Just plain text NOT</text><rect fill="#EEEEEE" height="18.1328" rx="5" ry="5" style="stroke: #000000; stroke-width: 2.5;" width="140" x="8.5" y="24.6328"/><text fill="#000000" font-family="sans-serif" font-size="12" lengthAdjust="spacingAndGlyphs" textLength="99" x="29" y="38.2344">This is my button</text><text fill="#000000" font-family="sans-serif" font-size="12" lengthAdjust="spacingAndGlyphs" textLength="97" x="26" y="58.8672">Unchecked radio</text><ellipse cx="13" cy="54.332" fill="none" rx="5" ry="5" style="stroke: #000000; stroke-width: 1.5;"/><text fill="#000000" font-family="sans-serif" font-size="12" lengthAdjust="spacingAndGlyphs" textLength="84" x="26" y="75">Checked radio</text><ellipse cx="13" cy="70.4648" fill="none" rx="5" ry="5" style="stroke: #000000; stroke-width: 1.5;"/><ellipse cx="13" cy="70.4648" fill="#000000" rx="2" ry="2" style="stroke: #000000; stroke-width: 1.5;"/><text fill="#000000" font-family="sans-serif" font-size="12" lengthAdjust="spacingAndGlyphs" textLength="89" x="26" y="91.1328">Unchecked box</text><rect fill="none" height="10" style="stroke: #000000; stroke-width: 1.5;" width="10" x="8" y="81.5977"/><text fill="#000000" font-family="sans-serif" font-size="12" lengthAdjust="spacingAndGlyphs" textLength="93" x="26" y="107.2656">Unchecked box!</text><rect fill="none" height="10" style="stroke: #000000; stroke-width: 1.5;" width="10" x="8" y="97.7305"/><text fill="#000000" font-family="sans-serif" font-size="12" lengthAdjust="spacingAndGlyphs" textLength="76" x="26" y="123.3984">Checked box</text><rect fill="none" height="10" style="stroke: #000000; stroke-width: 1.5;" width="10" x="8" y="113.8633"/><polygon fill="#000000" points="9,117.7969,12,120.7969,19,111.7969,12,118.7969" style="stroke: #000000; stroke-width: 1.5;"/><text fill="#000000" font-family="sans-serif" font-size="12" lengthAdjust="spacingAndGlyphs" textLength="86" x="9" y="139.5313">Enter text here</text><line style="stroke: #000000; stroke-width: 1.0;" x1="7" x2="154" y1="142.0625" y2="142.0625"/><line style="stroke: #000000; stroke-width: 1.0;" x1="7" x2="7" y1="139.0625" y2="141.0625"/><line style="stroke: #000000; stroke-width: 1.0;" x1="154" x2="154" y1="139.0625" y2="141.0625"/><rect fill="#EEEEEE" height="17.1328" style="stroke: #000000; stroke-width: 1.0;" width="159" x="6" y="146.0625"/><text fill="#000000" font-family="sans-serif" font-size="12" lengthAdjust="spacingAndGlyphs" textLength="96" x="8" y="159.6641">This is a droplist</text><line style="stroke: #000000; stroke-width: 1.0;" x1="154" x2="154" y1="146.0625" y2="163.1953"/><polygon fill="#000000" points="157,152.0625,163,152.0625,160,158.1953" style="stroke: #000000; stroke-width: 1.0;"/></g></svg>