<?xml version="1.0" encoding="UTF-8" standalone="no"?>
<!DOCTYPE svg PUBLIC "-//W3C//DTD SVG 1.1//EN"
 "http://www.w3.org/Graphics/SVG/1.1/DTD/svg11.dtd">
<!-- Generated by graphviz version 6.0.1 (20220911.1526)
 -->
<!-- Title: foo Pages: 1 -->
<svg width="299pt" height="260pt"
 viewBox="0.00 0.00 299.00 260.00" xmlns="http://www.w3.org/2000/svg" xmlns:xlink="http://www.w3.org/1999/xlink">
<g id="graph0" class="graph" transform="scale(1 1) rotate(0) translate(4 256)">
<title>foo</title>
<polygon fill="white" stroke="none" points="-4,4 -4,-256 295,-256 295,4 -4,4"/>
<!-- main_md1 -->
<g id="node1" class="node">
<title>main_md1</title>
<polygon fill="none" stroke="black" points="164.5,-108 102.5,-108 102.5,-72 170.5,-72 170.5,-102 164.5,-108"/>
<polyline fill="none" stroke="black" points="164.5,-108 164.5,-102"/>
<polyline fill="none" stroke="black" points="170.5,-102 164.5,-102"/>
<text text-anchor="middle" x="136.5" y="-86.3" font-family="Times,serif" font-size="14.00">Main.md</text>
</g>
<!-- main_pdf -->
<g id="node2" class="node">
<title>main_pdf</title>
<polygon fill="none" stroke="black" points="119.5,-36 57.5,-36 57.5,0 125.5,0 125.5,-30 119.5,-36"/>
<polyline fill="none" stroke="black" points="119.5,-36 119.5,-30"/>
<polyline fill="none" stroke="black" points="125.5,-30 119.5,-30"/>
<text text-anchor="middle" x="91.5" y="-14.3" font-family="Times,serif" font-size="14.00">Main.pdf</text>
</g>
<!-- main_md1&#45;&gt;main_pdf -->
<g id="edge2" class="edge">
<title>main_md1&#45;&gt;main_pdf</title>
<path fill="none" stroke="black" d="M125.38,-71.7C120.14,-63.56 113.8,-53.69 108.02,-44.7"/>
<polygon fill="black" stroke="black" points="110.85,-42.62 102.5,-36.1 104.96,-46.41 110.85,-42.62"/>
</g>
<!-- main_docx -->
<g id="node3" class="node">
<title>main_docx</title>
<polygon fill="none" stroke="black" points="213.5,-36 143.5,-36 143.5,0 219.5,0 219.5,-30 213.5,-36"/>
<polyline fill="none" stroke="black" points="213.5,-36 213.5,-30"/>
<polyline fill="none" stroke="black" points="219.5,-30 213.5,-30"/>
<text text-anchor="middle" x="181.5" y="-14.3" font-family="Times,serif" font-size="14.00">Main.docx</text>
</g>
<!-- main_md1&#45;&gt;main_docx -->
<g id="edge1" class="edge">
<title>main_md1&#45;&gt;main_docx</title>
<path fill="none" stroke="black" d="M147.62,-71.7C152.86,-63.56 159.2,-53.69 164.98,-44.7"/>
<polygon fill="black" stroke="black" points="168.04,-46.41 170.5,-36.1 162.15,-42.62 168.04,-46.41"/>
</g>
<!-- child_md1 -->
<g id="node4" class="node">
<title>child_md1</title>
<polygon fill="none" stroke="black" points="73,-180 0,-180 0,-144 79,-144 79,-174 73,-180"/>
<polyline fill="none" stroke="black" points="73,-180 73,-174"/>
<polyline fill="none" stroke="black" points="79,-174 73,-174"/>
<text text-anchor="middle" x="39.5" y="-158.3" font-family="Times,serif" font-size="14.00">Child 1.md</text>
</g>
<!-- child_md1&#45;&gt;main_md1 -->
<g id="edge3" class="edge">
<title>child_md1&#45;&gt;main_md1</title>
<path fill="none" stroke="black" d="M63.48,-143.7C75.81,-134.8 91.02,-123.82 104.35,-114.2"/>
<polygon fill="black" stroke="black" points="106.74,-116.79 112.8,-108.1 102.64,-111.12 106.74,-116.79"/>
</g>
<!-- child_md2 -->
<g id="node5" class="node">
<title>child_md2</title>
<polygon fill="none" stroke="black" points="170,-180 97,-180 97,-144 176,-144 176,-174 170,-180"/>
<polyline fill="none" stroke="black" points="170,-180 170,-174"/>
<polyline fill="none" stroke="black" points="176,-174 170,-174"/>
<text text-anchor="middle" x="136.5" y="-158.3" font-family="Times,serif" font-size="14.00">Child 2.md</text>
</g>
<!-- child_md2&#45;&gt;main_md1 -->
<g id="edge4" class="edge">
<title>child_md2&#45;&gt;main_md1</title>
<path fill="none" stroke="black" d="M136.5,-143.7C136.5,-135.98 136.5,-126.71 136.5,-118.11"/>
<polygon fill="black" stroke="black" points="140,-118.1 136.5,-108.1 133,-118.1 140,-118.1"/>
</g>
<!-- diag_1 -->
<g id="node6" class="node">
<title>diag_1</title>
<path fill="none" stroke="black" d="M279,-180C279,-180 206,-180 206,-180 200,-180 194,-174 194,-168 194,-168 194,-156 194,-156 194,-150 200,-144 206,-144 206,-144 279,-144 279,-144 285,-144 291,-150 291,-156 291,-156 291,-168 291,-168 291,-174 285,-180 279,-180"/>
<text text-anchor="middle" x="242.5" y="-158.3" font-family="Times,serif" font-size="14.00">Diagram 1.md</text>
</g>
<!-- diag_1&#45;&gt;main_md1 -->
<g id="edge6" class="edge">
<title>diag_1&#45;&gt;main_md1</title>
<path fill="none" stroke="black" d="M216.57,-143.88C202.84,-134.81 185.79,-123.55 170.96,-113.76"/>
<polygon fill="black" stroke="black" points="172.8,-110.78 162.53,-108.19 168.95,-116.62 172.8,-110.78"/>
</g>
<!-- diag_2 -->
<g id="node7" class="node">
<title>diag_2</title>
<path fill="none" stroke="black" d="M173,-252C173,-252 100,-252 100,-252 94,-252 88,-246 88,-240 88,-240 88,-228 88,-228 88,-222 94,-216 100,-216 100,-216 173,-216 173,-216 179,-216 185,-222 185,-228 185,-228 185,-240 185,-240 185,-246 179,-252 173,-252"/>
<text text-anchor="middle" x="136.5" y="-230.3" font-family="Times,serif" font-size="14.00">Diagram 2.md</text>
</g>
<!-- diag_2&#45;&gt;child_md2 -->
<g id="edge5" class="edge">
<title>diag_2&#45;&gt;child_md2</title>
<path fill="none" stroke="black" d="M136.5,-215.7C136.5,-207.98 136.5,-198.71 136.5,-190.11"/>
<polygon fill="black" stroke="black" points="140,-190.1 136.5,-180.1 133,-190.1 140,-190.1"/>
</g>
</g>
</svg>
