<?xml version="1.0" encoding="UTF-8" standalone="no"?>
<!DOCTYPE svg PUBLIC "-//W3C//DTD SVG 1.1//EN"
 "http://www.w3.org/Graphics/SVG/1.1/DTD/svg11.dtd">
<!-- Generated by graphviz version 6.0.1 (20220911.1526)
 -->
<!-- Title: foo Pages: 1 -->
<svg width="381pt" height="336pt"
 viewBox="0.00 0.00 380.66 336.00" xmlns="http://www.w3.org/2000/svg" xmlns:xlink="http://www.w3.org/1999/xlink">
<g id="graph0" class="graph" transform="scale(1 1) rotate(0) translate(4 332)">
<title>foo</title>
<polygon fill="white" stroke="none" points="-4,4 -4,-332 376.66,-332 376.66,4 -4,4"/>
<!-- main_md1 -->
<g id="node1" class="node">
<title>main_md1</title>
<polygon fill="none" stroke="black" points="164.5,-184 102.5,-184 102.5,-148 170.5,-148 170.5,-178 164.5,-184"/>
<polyline fill="none" stroke="black" points="164.5,-184 164.5,-178"/>
<polyline fill="none" stroke="black" points="170.5,-178 164.5,-178"/>
<text text-anchor="middle" x="136.5" y="-162.3" font-family="Times,serif" font-size="14.00">Main.md</text>
</g>
<!-- main_pdf -->
<g id="node2" class="node">
<title>main_pdf</title>
<polygon fill="none" stroke="black" points="74.5,-111 12.5,-111 12.5,-75 80.5,-75 80.5,-105 74.5,-111"/>
<polyline fill="none" stroke="black" points="74.5,-111 74.5,-105"/>
<polyline fill="none" stroke="black" points="80.5,-105 74.5,-105"/>
<text text-anchor="middle" x="46.5" y="-89.3" font-family="Times,serif" font-size="14.00">Main.pdf</text>
</g>
<!-- main_md1&#45;&gt;main_pdf -->
<g id="edge3" class="edge">
<title>main_md1&#45;&gt;main_pdf</title>
<path fill="none" stroke="black" d="M114.71,-147.81C103.11,-138.66 88.66,-127.26 76.06,-117.32"/>
<polygon fill="black" stroke="black" points="78.1,-114.47 68.09,-111.03 73.77,-119.97 78.1,-114.47"/>
</g>
<!-- main_docx -->
<g id="node3" class="node">
<title>main_docx</title>
<polygon fill="none" stroke="black" points="168.5,-111 98.5,-111 98.5,-75 174.5,-75 174.5,-105 168.5,-111"/>
<polyline fill="none" stroke="black" points="168.5,-111 168.5,-105"/>
<polyline fill="none" stroke="black" points="174.5,-105 168.5,-105"/>
<text text-anchor="middle" x="136.5" y="-89.3" font-family="Times,serif" font-size="14.00">Main.docx</text>
</g>
<!-- main_md1&#45;&gt;main_docx -->
<g id="edge2" class="edge">
<title>main_md1&#45;&gt;main_docx</title>
<path fill="none" stroke="black" d="M136.5,-147.81C136.5,-139.79 136.5,-130.05 136.5,-121.07"/>
<polygon fill="black" stroke="black" points="140,-121.03 136.5,-111.03 133,-121.03 140,-121.03"/>
</g>
<!-- documatic -->
<g id="node9" class="node">
<title>documatic</title>
<path fill="none" stroke="black" d="M258,-112C258,-112 205,-112 205,-112 199,-112 193,-106 193,-100 193,-100 193,-86 193,-86 193,-80 199,-74 205,-74 205,-74 258,-74 258,-74 264,-74 270,-80 270,-86 270,-86 270,-100 270,-100 270,-106 264,-112 258,-112"/>
<text text-anchor="middle" x="231.5" y="-96.8" font-family="Times,serif" font-size="14.00">Documatic</text>
<text text-anchor="middle" x="231.5" y="-81.8" font-family="Times,serif" font-size="14.00">executable</text>
</g>
<!-- main_md1&#45;&gt;documatic -->
<g id="edge1" class="edge">
<title>main_md1&#45;&gt;documatic</title>
<path fill="none" stroke="black" d="M159.5,-147.81C171.39,-138.93 186.1,-127.93 199.12,-118.2"/>
<polygon fill="black" stroke="black" points="201.47,-120.81 207.39,-112.02 197.28,-115.2 201.47,-120.81"/>
</g>
<!-- child_md1 -->
<g id="node4" class="node">
<title>child_md1</title>
<polygon fill="none" stroke="black" points="73,-256 0,-256 0,-220 79,-220 79,-250 73,-256"/>
<polyline fill="none" stroke="black" points="73,-256 73,-250"/>
<polyline fill="none" stroke="black" points="79,-250 73,-250"/>
<text text-anchor="middle" x="39.5" y="-234.3" font-family="Times,serif" font-size="14.00">Child 1.md</text>
</g>
<!-- child_md1&#45;&gt;main_md1 -->
<g id="edge4" class="edge">
<title>child_md1&#45;&gt;main_md1</title>
<path fill="none" stroke="black" d="M63.48,-219.7C75.81,-210.8 91.02,-199.82 104.35,-190.2"/>
<polygon fill="black" stroke="black" points="106.74,-192.79 112.8,-184.1 102.64,-187.12 106.74,-192.79"/>
</g>
<!-- child_md2 -->
<g id="node5" class="node">
<title>child_md2</title>
<polygon fill="none" stroke="black" points="170,-256 97,-256 97,-220 176,-220 176,-250 170,-256"/>
<polyline fill="none" stroke="black" points="170,-256 170,-250"/>
<polyline fill="none" stroke="black" points="176,-250 170,-250"/>
<text text-anchor="middle" x="136.5" y="-234.3" font-family="Times,serif" font-size="14.00">Child 2.md</text>
</g>
<!-- child_md2&#45;&gt;main_md1 -->
<g id="edge5" class="edge">
<title>child_md2&#45;&gt;main_md1</title>
<path fill="none" stroke="black" d="M136.5,-219.7C136.5,-211.98 136.5,-202.71 136.5,-194.11"/>
<polygon fill="black" stroke="black" points="140,-194.1 136.5,-184.1 133,-194.1 140,-194.1"/>
</g>
<!-- diag_1 -->
<g id="node6" class="node">
<title>diag_1</title>
<path fill="none" stroke="black" d="M271.74,-253.63C271.74,-253.63 205.95,-240.37 205.95,-240.37 200.06,-239.19 200.06,-236.81 205.95,-235.63 205.95,-235.63 271.74,-222.37 271.74,-222.37 277.62,-221.19 289.38,-221.19 295.26,-222.37 295.26,-222.37 361.05,-235.63 361.05,-235.63 366.94,-236.81 366.94,-239.19 361.05,-240.37 361.05,-240.37 295.26,-253.63 295.26,-253.63 289.38,-254.81 277.62,-254.81 271.74,-253.63"/>
<text text-anchor="middle" x="283.5" y="-234.3" font-family="Times,serif" font-size="14.00">Diagram 1.md</text>
</g>
<!-- diag_1&#45;&gt;main_md1 -->
<g id="edge7" class="edge">
<title>diag_1&#45;&gt;main_md1</title>
<path fill="none" stroke="black" d="M258.23,-224.97C236.66,-214.7 205.17,-199.7 179.63,-187.54"/>
<polygon fill="black" stroke="black" points="181.05,-184.34 170.51,-183.2 178.04,-190.66 181.05,-184.34"/>
</g>
<!-- diag_2 -->
<g id="node7" class="node">
<title>diag_2</title>
<path fill="none" stroke="black" d="M124.74,-325.63C124.74,-325.63 58.95,-312.37 58.95,-312.37 53.06,-311.19 53.06,-308.81 58.95,-307.63 58.95,-307.63 124.74,-294.37 124.74,-294.37 130.62,-293.19 142.38,-293.19 148.26,-294.37 148.26,-294.37 214.05,-307.63 214.05,-307.63 219.94,-308.81 219.94,-311.19 214.05,-312.37 214.05,-312.37 148.26,-325.63 148.26,-325.63 142.38,-326.81 130.62,-326.81 124.74,-325.63"/>
<text text-anchor="middle" x="136.5" y="-306.3" font-family="Times,serif" font-size="14.00">Diagram 2.md</text>
</g>
<!-- diag_2&#45;&gt;child_md2 -->
<g id="edge6" class="edge">
<title>diag_2&#45;&gt;child_md2</title>
<path fill="none" stroke="black" d="M136.5,-291.7C136.5,-283.98 136.5,-274.71 136.5,-266.11"/>
<polygon fill="black" stroke="black" points="140,-266.1 136.5,-256.1 133,-266.1 140,-266.1"/>
</g>
<!-- puml -->
<g id="node8" class="node">
<title>puml</title>
<path fill="none" stroke="black" d="M210,-38C210,-38 159,-38 159,-38 153,-38 147,-32 147,-26 147,-26 147,-12 147,-12 147,-6 153,0 159,0 159,0 210,0 210,0 216,0 222,-6 222,-12 222,-12 222,-26 222,-26 222,-32 216,-38 210,-38"/>
<text text-anchor="middle" x="184.5" y="-22.8" font-family="Times,serif" font-size="14.00">PlantUML</text>
<text text-anchor="middle" x="184.5" y="-7.8" font-family="Times,serif" font-size="14.00">executable</text>
</g>
<!-- documatic&#45;&gt;puml -->
<g id="edge9" class="edge">
<title>documatic&#45;&gt;puml</title>
<path fill="none" stroke="black" d="M219.64,-73.83C214.34,-65.71 207.98,-55.96 202.13,-47.01"/>
<polygon fill="black" stroke="black" points="204.92,-44.87 196.52,-38.41 199.06,-48.7 204.92,-44.87"/>
</g>
<!-- pandoc -->
<g id="node10" class="node">
<title>pandoc</title>
<path fill="none" stroke="black" d="M302.5,-38C302.5,-38 252.5,-38 252.5,-38 246.5,-38 240.5,-32 240.5,-26 240.5,-26 240.5,-12 240.5,-12 240.5,-6 246.5,0 252.5,0 252.5,0 302.5,0 302.5,0 308.5,0 314.5,-6 314.5,-12 314.5,-12 314.5,-26 314.5,-26 314.5,-32 308.5,-38 302.5,-38"/>
<text text-anchor="middle" x="277.5" y="-22.8" font-family="Times,serif" font-size="14.00">Pandoc</text>
<text text-anchor="middle" x="277.5" y="-7.8" font-family="Times,serif" font-size="14.00">executable</text>
</g>
<!-- documatic&#45;&gt;pandoc -->
<g id="edge8" class="edge">
<title>documatic&#45;&gt;pandoc</title>
<path fill="none" stroke="black" d="M243.11,-73.83C248.3,-65.71 254.52,-55.96 260.24,-47.01"/>
<polygon fill="black" stroke="black" points="263.3,-48.72 265.74,-38.41 257.4,-44.96 263.3,-48.72"/>
</g>
</g>
</svg>
