<?xml version="1.0" encoding="UTF-8" standalone="no"?>
<!DOCTYPE svg PUBLIC "-//W3C//DTD SVG 1.1//EN"
 "http://www.w3.org/Graphics/SVG/1.1/DTD/svg11.dtd">
<!-- Generated by graphviz version 6.0.1 (20220911.1526)
 -->
<!-- Title: foo Pages: 1 -->
<svg width="176pt" height="120pt"
 viewBox="0.00 0.00 175.50 120.00" xmlns="http://www.w3.org/2000/svg" xmlns:xlink="http://www.w3.org/1999/xlink">
<g id="graph0" class="graph" transform="scale(1 1) rotate(0) translate(4 116)">
<title>foo</title>
<polygon fill="white" stroke="none" points="-4,4 -4,-116 171.5,-116 171.5,4 -4,4"/>
<!-- puml -->
<g id="node1" class="node">
<title>puml</title>
<path fill="none" stroke="black" d="M63,-38C63,-38 12,-38 12,-38 6,-38 0,-32 0,-26 0,-26 0,-12 0,-12 0,-6 6,0 12,0 12,0 63,0 63,0 69,0 75,-6 75,-12 75,-12 75,-26 75,-26 75,-32 69,-38 63,-38"/>
<text text-anchor="middle" x="37.5" y="-22.8" font-family="Times,serif" font-size="14.00">PlantUML</text>
<text text-anchor="middle" x="37.5" y="-7.8" font-family="Times,serif" font-size="14.00">executable</text>
</g>
<!-- documatic -->
<g id="node2" class="node">
<title>documatic</title>
<path fill="none" stroke="black" d="M110,-112C110,-112 57,-112 57,-112 51,-112 45,-106 45,-100 45,-100 45,-86 45,-86 45,-80 51,-74 57,-74 57,-74 110,-74 110,-74 116,-74 122,-80 122,-86 122,-86 122,-100 122,-100 122,-106 116,-112 110,-112"/>
<text text-anchor="middle" x="83.5" y="-96.8" font-family="Times,serif" font-size="14.00">Documatic</text>
<text text-anchor="middle" x="83.5" y="-81.8" font-family="Times,serif" font-size="14.00">executable</text>
</g>
<!-- documatic&#45;&gt;puml -->
<g id="edge2" class="edge">
<title>documatic&#45;&gt;puml</title>
<path fill="none" stroke="black" d="M71.89,-73.83C66.7,-65.71 60.48,-55.96 54.76,-47.01"/>
<polygon fill="black" stroke="black" points="57.6,-44.96 49.26,-38.41 51.7,-48.72 57.6,-44.96"/>
<text text-anchor="middle" x="48.39" y="-62.63" font-family="Times,serif" font-size="14.00">executes</text>
</g>
<!-- pandoc -->
<g id="node3" class="node">
<title>pandoc</title>
<path fill="none" stroke="black" d="M155.5,-38C155.5,-38 105.5,-38 105.5,-38 99.5,-38 93.5,-32 93.5,-26 93.5,-26 93.5,-12 93.5,-12 93.5,-6 99.5,0 105.5,0 105.5,0 155.5,0 155.5,0 161.5,0 167.5,-6 167.5,-12 167.5,-12 167.5,-26 167.5,-26 167.5,-32 161.5,-38 155.5,-38"/>
<text text-anchor="middle" x="130.5" y="-22.8" font-family="Times,serif" font-size="14.00">Pandoc</text>
<text text-anchor="middle" x="130.5" y="-7.8" font-family="Times,serif" font-size="14.00">executable</text>
</g>
<!-- documatic&#45;&gt;pandoc -->
<g id="edge1" class="edge">
<title>documatic&#45;&gt;pandoc</title>
<path fill="none" stroke="black" d="M95.36,-73.83C100.66,-65.71 107.02,-55.96 112.87,-47.01"/>
<polygon fill="black" stroke="black" points="115.94,-48.7 118.48,-38.41 110.08,-44.87 115.94,-48.7"/>
<text text-anchor="middle" x="118.86" y="-62.63" font-family="Times,serif" font-size="14.00">executes</text>
</g>
</g>
</svg>
